<svg width="24" height="21" viewBox="0 0 24 21" fill="none" xmlns="http://www.w3.org/2000/svg">
<path fill-rule="evenodd" clip-rule="evenodd" d="M1 0H23C23.5523 0 24 0.470101 24 1.05V19.95C24 20.5299 23.5523 21 23 21H1C0.447715 21 0 20.5299 0 19.95V1.05C0 0.470101 0.447715 0 1 0ZM8 5.5C8 4.94772 7.55228 4.5 7 4.5C6.44772 4.5 6 4.94772 6 5.5C6 7.19478 6.61117 8.83706 7.72453 10.0618C8.84077 11.2896 10.3763 12 12 12C13.6237 12 15.1592 11.2896 16.2755 10.0618C17.3888 8.83706 18 7.19478 18 5.5C18 4.94772 17.5523 4.5 17 4.5C16.4477 4.5 16 4.94772 16 5.5C16 6.72261 15.5576 7.87821 14.7956 8.71641C14.0365 9.55145 13.0284 10 12 10C10.9716 10 9.96353 9.55145 9.20441 8.71641C8.4424 7.87821 8 6.72261 8 5.5Z" fill="white"/>
</svg>
