<svg width="24" height="24" viewBox="0 0 24 24" fill="none" xmlns="http://www.w3.org/2000/svg">
<path d="M12 16.5V21.75" stroke="white" stroke-linecap="round" stroke-linejoin="round"/>
<path d="M8.25 21.75H15.75" stroke="white" stroke-linecap="round" stroke-linejoin="round"/>
<path d="M7.50015 2.25H16.5001L18.947 10.5281C19.0978 11.0467 19.0579 11.6021 18.8345 12.0938C18.2403 13.4085 17.2795 14.5239 16.0673 15.3063C14.8551 16.0887 13.4429 16.5048 12.0001 16.5048C10.5574 16.5048 9.14522 16.0887 7.93301 15.3063C6.7208 14.5239 5.75998 13.4085 5.16577 12.0938C4.94237 11.6021 4.90246 11.0467 5.05327 10.5281L7.50015 2.25Z" stroke="white" stroke-linecap="round" stroke-linejoin="round"/>
<path d="M5.39062 9.40307C6.38438 8.86869 8.69063 8.09994 12 9.74994C15.525 11.5124 17.9156 10.5187 18.7875 10.0031" stroke="white" stroke-linecap="round" stroke-linejoin="round"/>
<path d="M5.5 9H9L15.5 10.5H19L17 15L13 16H11L8.5 15.5L6 14L5 11.5L5.5 9Z" fill="white"/>
</svg>
