<?xml version="1.0" encoding="UTF-8"?>
<!DOCTYPE svg PUBLIC "-//W3C//DTD SVG 1.1//EN" "http://www.w3.org/Graphics/SVG/1.1/DTD/svg11.dtd">
<!-- Creator: CorelDRAW X8 -->
<svg xmlns="http://www.w3.org/2000/svg" xml:space="preserve" width="42px" height="42px" version="1.1" style="shape-rendering:geometricPrecision; text-rendering:geometricPrecision; image-rendering:optimizeQuality; fill-rule:evenodd; clip-rule:evenodd"
viewBox="0 0 420 420"
 xmlns:xlink="http://www.w3.org/1999/xlink">
 <defs>
  <style type="text/css">
   <![CDATA[
    .fil1 {fill:none}
    .fil0 {fill:white}
   ]]>
  </style>
 </defs>
 <g id="Слой_x0020_1">
  <metadata id="CorelCorpID_0Corel-Layer"/>
  <g id="_705055266976">
   <path class="fil0" d="M227 150c10,-7 11,-6 24,-6 -1,8 -5,20 -7,28l-23 86c-29,0 -50,1 -76,9 -16,4 -47,18 -51,35l12 6c6,2 10,0 15,-2 12,-4 18,-9 32,-5 9,3 19,10 29,7 51,-17 26,-7 58,0 8,1 22,-7 30,-9 20,-6 28,15 44,8 5,-2 9,-4 15,-5 -15,-30 -64,-43 -97,-43l30 -112c6,1 12,6 16,12 3,5 0,3 5,5 0,-22 5,-39 -3,-64 -4,-11 -4,-14 -7,-17 -17,5 -45,49 -46,67z"/>
   <path class="fil0" d="M274 312c-6,3 -29,12 -34,10 -16,-5 -21,-13 -37,-7 -26,8 -24,9 -37,4 -18,-6 -17,-10 -37,-2 -22,9 -15,7 -36,0 -6,-2 -13,-5 -19,-2 -2,1 -3,3 -4,6l0 4c1,2 2,5 5,6 3,2 33,13 35,13 7,-1 31,-12 36,-11 11,2 25,12 37,9 5,-1 12,-4 17,-6 14,-4 9,-6 36,5 10,4 10,2 19,-2 5,-2 13,-5 17,-6 9,-3 12,2 19,5 19,8 15,8 35,-1 4,-1 20,-6 24,-12l0 -6c-1,-1 -2,-2 -3,-3 -10,-7 -28,5 -38,7 -12,2 -24,-15 -35,-11z"/>
   <path class="fil0" d="M168 136c11,-6 16,-10 31,-6 14,4 14,9 22,19l1 -2c4,-5 7,-19 20,-38 14,-22 25,-26 28,-32 -22,0 -35,-7 -66,12 -14,8 -34,29 -36,47zm-1 0l0 0c0,0 0,0 0,0z"/>
   <path class="fil0" d="M286 165c4,-1 17,-10 33,-4 13,6 14,10 19,21 8,-11 1,-47 -12,-66 -11,-16 -30,-32 -49,-36 6,25 12,21 11,63 0,7 -2,15 -2,22z"/>
   <path class="fil0" d="M106 190c-2,-10 8,-21 17,-22 11,-1 21,7 23,17 3,27 -35,30 -40,5zm-14 -22c2,23 9,8 -4,29 11,10 13,1 18,24 6,0 11,-3 17,-2 5,1 8,5 14,6 11,-21 6,-10 23,-18 -1,-20 -8,-7 4,-28 -4,-5 -9,-5 -13,-8 -3,-4 -3,-12 -5,-17 -20,9 -20,0 -30,-3 -4,3 -5,9 -8,12 -3,2 -11,3 -16,5z"/>
  </g>
  <rect class="fil1" width="420" height="420"/>
 </g>
</svg>
