<svg width="24" height="24" viewBox="0 0 24 24" fill="none" xmlns="http://www.w3.org/2000/svg">
<path d="M8.25 2.25V5.25" stroke="white" stroke-linecap="round" stroke-linejoin="round"/>
<path d="M11.25 2.25V5.25" stroke="white" stroke-linecap="round" stroke-linejoin="round"/>
<path d="M14.25 2.25V5.25" stroke="white" stroke-linecap="round" stroke-linejoin="round"/>
<path d="M3 20.25H19.5" stroke="white" stroke-linecap="round" stroke-linejoin="round"/>
<path d="M7.80938 20.25C6.37394 19.5913 5.15773 18.5345 4.3052 17.205C3.45268 15.8756 2.99968 14.3293 3 12.75V8.25H19.5V12.75C19.5003 14.3293 19.0473 15.8756 18.1948 17.205C17.3423 18.5345 16.1261 19.5913 14.6906 20.25" fill="white"/>
<path d="M7.80938 20.25C6.37394 19.5913 5.15773 18.5345 4.3052 17.205C3.45268 15.8756 2.99968 14.3293 3 12.75V8.25H19.5V12.75C19.5003 14.3293 19.0473 15.8756 18.1948 17.205C17.3423 18.5345 16.1261 19.5913 14.6906 20.25" stroke="white" stroke-linecap="round" stroke-linejoin="round"/>
<path d="M19.4999 8.25C20.2956 8.25 21.0586 8.56607 21.6212 9.12868C22.1838 9.69129 22.4999 10.4544 22.4999 11.25V12C22.4999 12.7956 22.1838 13.5587 21.6212 14.1213C21.0586 14.6839 20.2956 15 19.4999 15H19.1812" stroke="white" stroke-linecap="round" stroke-linejoin="round"/>
</svg>
